<svg id="Gradient_Solid" enable-background="new 0 0 32 32" height="512" viewBox="0 0 32 32" width="512" xmlns="http://www.w3.org/2000/svg" xmlns:xlink="http://www.w3.org/1999/xlink"><linearGradient id="SVGID_1_" gradientUnits="userSpaceOnUse" x1="1.008" x2="31.825" y1="31.866" y2="1.329"><stop offset="0" stop-color="#0e5dd8"/><stop offset="1" stop-color="#eb55ff"/></linearGradient><path d="m8.662 21.445c.444.665-.033 1.555-.832 1.555h-4.83c-.657 0-1.135-.623-.966-1.258l2.834-8.306c.209.027.416.064.632.064h4.366l-2.167 6.5zm8.874-16.445c.232 0 .4.222.336.446l-1.8 6.301c-.042.15-.18.253-.336.253h-10.236c-1.933 0-3.5-1.567-3.5-3.5 0-1.933 1.567-3.5 3.5-3.5zm8.914 20h-.9c-.166 0-.3-.134-.3-.3v-4.4c0-.166.134-.3.3-.3h.9c.166 0 .3.134.3.3v4.4c0 .166-.134.3-.3.3zm-3-1h-.9c-.166 0-.3-.134-.3-.3v-3.4c0-.166.134-.3.3-.3h.9c.166 0 .3.134.3.3v3.4c0 .166-.134.3-.3.3zm-3 1h-.9c-.166 0-.3-.134-.3-.3v-4.4c0-.166.134-.3.3-.3h.9c.166 0 .3.134.3.3v4.4c0 .166-.134.3-.3.3zm-3.25-4h-.9c-.166 0-.3-.134-.3-.3v-1.95c0-.966.784-1.75 1.75-1.75h1.95c.166 0 .3.134.3.3v.9c0 .166-.134.3-.3.3h-1.95c-.138 0-.25.112-.25.25v1.95c0 .166-.134.3-.3.3zm2.5 7h-1.95c-.966 0-1.75-.784-1.75-1.75v-1.95c0-.166.134-.3.3-.3h.9c.166 0 .3.134.3.3v1.95c0 .138.112.25.25.25h1.95c.166 0 .3.134.3.3v.9c0 .166-.134.3-.3.3zm8.8-7.3v-1.95c0-.138-.112-.25-.25-.25h-1.95c-.166 0-.3-.134-.3-.3v-.9c0-.166.134-.3.3-.3h1.95c.966 0 1.75.784 1.75 1.75v1.95c0 .166-.134.3-.3.3h-.9c-.166 0-.3-.134-.3-.3zm-2.5 7v-.9c0-.166.134-.3.3-.3h1.95c.138 0 .25-.112.25-.25v-1.95c0-.166.134-.3.3-.3h.9c.166 0 .3.134.3.3v1.95c0 .966-.784 1.75-1.75 1.75h-1.95c-.166 0-.3-.134-.3-.3zm-4.51-16.66c-.197 0-.394-.077-.542-.231-.287-.299-.276-.774.022-1.061.337-.321.53-.776.53-1.248s-.193-.927-.529-1.249c-.299-.287-.309-.761-.022-1.061s.76-.309 1.061-.022c.629.604.99 1.454.99 2.332s-.361 1.728-.991 2.332c-.145.139-.332.208-.519.208zm3.329 1.41c-.139 0-.279-.038-.404-.119-.349-.224-.45-.688-.227-1.036.531-.827.812-1.794.812-2.795s-.281-1.968-.812-2.795c-.224-.349-.122-.812.227-1.036.347-.224.812-.123 1.036.227.686 1.069 1.049 2.315 1.049 3.604s-.363 2.535-1.049 3.605c-.143.224-.385.345-.632.345zm3.261 1.38c-.123 0-.247-.03-.362-.093-.363-.2-.495-.656-.294-1.019.704-1.277 1.076-2.736 1.076-4.218s-.372-2.941-1.077-4.218c-.2-.363-.068-.819.294-1.019s.819-.068 1.019.294c.827 1.499 1.264 3.208 1.264 4.943s-.437 3.444-1.263 4.942c-.137.248-.393.388-.657.388zm-15.58.17v1.5c0 .276-.224.5-.5.5h-1v-2.5h1c.276 0 .5.224.5.5z" fill="url(#SVGID_1_)"/></svg>