<svg id="Duo" enable-background="new 0 0 32 32" height="512" viewBox="0 0 32 32" width="512" xmlns="http://www.w3.org/2000/svg"><path d="m17 19v7c0 .552.448 1 1 1h10c.552 0 1-.448 1-1v-7c0-.552-.448-1-1-1h-10c-.552 0-1 .448-1 1z" fill="#d8e5f9"/><path d="m6.5 5c-1.933 0-3.5 1.567-3.5 3.5 0 1.933 1.567 3.5 3.5 3.5h9.5l2-7z" fill="#d8e5f9"/><g fill="#0e5dd8"><path d="m18.798 4.398c-.189-.251-.484-.398-.798-.398h-11.5c-2.481 0-4.5 2.019-4.5 4.5 0 1.971 1.282 3.632 3.05 4.239l-2.982 8.746c-.161.605-.035 1.237.347 1.734s.96.781 1.585.781h4.83c.739 0 1.415-.405 1.763-1.056s.311-1.438-.099-2.053l-.692-1.039 2.285-6.852h3.913c.446 0 .839-.296.961-.725l2-7c.087-.302.026-.627-.163-.877zm-11.048 15.286c-.098.293-.055.614.117.871l.964 1.445-4.85.065 3.092-9.065h2.905zm7.496-8.684h-8.746c-1.378 0-2.5-1.122-2.5-2.5s1.122-2.5 2.5-2.5h10.174z"/><path d="m26 25c-.552 0-1-.448-1-1v-3c0-.552.448-1 1-1s1 .448 1 1v3c0 .552-.448 1-1 1z"/><path d="m23 24c-.552 0-1-.448-1-1v-2c0-.552.448-1 1-1s1 .448 1 1v2c0 .552-.448 1-1 1z"/><path d="m20 25c-.552 0-1-.448-1-1v-3c0-.552.448-1 1-1s1 .448 1 1v3c0 .552-.448 1-1 1z"/><path d="m17 21c-.552 0-1-.448-1-1v-1c0-1.103.897-2 2-2h1c.552 0 1 .448 1 1s-.448 1-1 1h-1v1c0 .552-.448 1-1 1z"/><path d="m29 21c-.552 0-1-.448-1-1v-1h-1c-.552 0-1-.448-1-1s.448-1 1-1h1c1.103 0 2 .897 2 2v1c0 .552-.448 1-1 1z"/><path d="m19 28h-1c-1.103 0-2-.897-2-2v-1c0-.552.448-1 1-1s1 .448 1 1v1h1c.552 0 1 .448 1 1s-.448 1-1 1z"/><path d="m28 28h-1c-.552 0-1-.448-1-1s.448-1 1-1h1v-1c0-.552.448-1 1-1s1 .448 1 1v1c0 1.103-.897 2-2 2z"/><path d="m21.24 11.29c-.263 0-.525-.103-.722-.308-.382-.399-.369-1.032.03-1.414.287-.275.452-.664.452-1.068s-.165-.793-.452-1.068c-.399-.382-.412-1.015-.03-1.414.383-.399 1.016-.412 1.414-.03.679.65 1.068 1.566 1.068 2.512s-.389 1.862-1.068 2.512c-.194.186-.443.278-.692.278z"/><path d="m24.569 12.7c-.185 0-.372-.051-.539-.158-.465-.298-.6-.917-.302-1.382.505-.787.772-1.707.772-2.66s-.267-1.873-.772-2.66c-.298-.465-.163-1.083.302-1.382.466-.299 1.084-.163 1.382.302.712 1.11 1.088 2.404 1.088 3.74s-.376 2.63-1.088 3.74c-.191.298-.514.46-.843.46z"/><path d="m27.829 14.08c-.163 0-.329-.04-.482-.125-.483-.267-.66-.875-.393-1.358.685-1.24 1.046-2.657 1.046-4.097s-.361-2.857-1.045-4.097c-.267-.483-.091-1.092.393-1.358.483-.267 1.092-.091 1.358.393.846 1.534 1.294 3.285 1.294 5.062s-.448 3.528-1.294 5.063c-.183.331-.524.517-.877.517z"/></g></svg>